<?xml version="1.0" encoding="iso-8859-1"?>
<!-- Generator: Adobe Illustrator 19.0.0, SVG Export Plug-In . SVG Version: 6.00 Build 0)  -->
<svg version="1.1" id="Layer_1" xmlns="http://www.w3.org/2000/svg" xmlns:xlink="http://www.w3.org/1999/xlink" x="0px" y="0px"
	 viewBox="0 0 473.935 473.935" style="enable-background:new 0 0 473.935 473.935;" xml:space="preserve">
<circle style="fill:#344E5D;" cx="236.967" cy="236.967" r="236.967"/>
<path style="fill:#E3E2E2;" d="M236.949,54.72c-100.628,0-182.229,81.575-182.229,182.221c0,100.639,81.605,182.24,182.229,182.24
	c100.654,0,182.236-81.605,182.236-182.24C419.185,136.295,337.603,54.72,236.949,54.72z M238.943,254.561
	c-11.057,0-20.026-8.969-20.026-20.03c0-11.079,8.965-20.045,20.026-20.045s20.037,8.965,20.037,20.045
	C258.984,245.589,250,254.561,238.943,254.561z"/>
<path style="fill:#CDCCCB;" d="M343.852,100.336c-75.434-59.034-184.466-45.751-243.516,29.702
	C41.294,205.488,54.6,314.542,130.042,373.576c75.457,59.049,184.489,45.728,243.531-29.721S419.323,159.389,343.852,100.336z
	 M228.114,251.321c-8.288-6.481-9.747-18.473-3.267-26.761c6.503-8.307,18.488-9.77,26.776-3.285
	c8.296,6.488,9.762,18.484,3.267,26.787C248.402,256.357,236.402,257.809,228.114,251.321z"/>
<path style="fill:#CBCBC9;" d="M341.812,102.948c-74.001-57.912-180.942-44.879-238.868,29.13
	c-57.919,74.009-44.864,180.975,29.137,238.879c74.016,57.923,180.964,44.864,238.876-29.152
	C428.876,267.803,415.84,160.871,341.812,102.948z M228.283,251.048c-8.135-6.361-9.568-18.121-3.199-26.256
	c6.372-8.15,18.14-9.583,26.26-3.222c8.135,6.372,9.575,18.133,3.199,26.279C248.182,255.979,236.414,257.405,228.283,251.048z"/>
<path style="fill:#D2D2D2;" d="M252.559,250.157c-6.578,6.593-17.137,7.442-24.651,1.572c-7.506-5.878-9.209-16.333-4.4-24.288
	l-120.665-94.435c-57.792,73.852-44.77,180.597,29.074,238.374c73.863,57.799,180.579,44.763,238.378-29.085L252.559,250.157z"/>
<g>
	<path style="fill:#DCDBDC;" d="M238.943,176.624c-31.989,0-57.897,25.923-57.897,57.908c0,31.966,25.908,57.904,57.897,57.904
		s57.912-25.938,57.912-57.904C296.855,202.547,270.932,176.624,238.943,176.624z M238.943,254.561
		c-11.057,0-20.026-8.969-20.026-20.03c0-11.079,8.965-20.045,20.026-20.045s20.037,8.965,20.037,20.045
		C258.984,245.589,250,254.561,238.943,254.561z"/>
	<path style="fill:#DCDBDC;" d="M164.077,216.975l-71.883-15.068c9.055-45.556,40.254-83.12,81.926-100.961l34.544,65.395
		C185.896,173.694,168.568,193.061,164.077,216.975z"/>
	<path style="fill:#DCDBDC;" d="M299.807,372.937l-34.574-65.38c22.78-7.379,40.116-26.731,44.587-50.649l71.898,15.079
		C372.675,317.536,341.464,355.077,299.807,372.937z"/>
</g>
<path style="fill:#A4A5A4;" d="M238.943,203.991c-16.868,0-30.533,13.672-30.533,30.54c0,16.857,13.665,30.537,30.533,30.537
	s30.54-13.68,30.54-30.537C269.484,217.664,255.811,203.991,238.943,203.991z M238.936,254.947
	c-11.263,0-20.404-9.134-20.404-20.408c0-11.289,9.141-20.438,20.404-20.438c11.278,0,20.426,9.149,20.426,20.438
	C259.362,245.813,250.213,254.947,238.936,254.947z"/>
<g>
</g>
<g>
</g>
<g>
</g>
<g>
</g>
<g>
</g>
<g>
</g>
<g>
</g>
<g>
</g>
<g>
</g>
<g>
</g>
<g>
</g>
<g>
</g>
<g>
</g>
<g>
</g>
<g>
</g>
</svg>
